<svg id="圖層_1" data-name="圖層 1" xmlns="http://www.w3.org/2000/svg" viewBox="0 0 87 87"><defs><style>.cls-1{fill:#fff;}.cls-2{fill:#0b0a0a;}</style></defs><rect class="cls-1" width="86.63" height="86.63" rx="13.87"/><path class="cls-2" d="M78.76,38.3c0-15.86-15.9-28.77-35.45-28.77S7.86,22.44,7.86,38.3c0,14.22,12.61,26.14,29.65,28.39,1.15.25,2.73.76,3.12,1.75a7.21,7.21,0,0,1,.12,3.2l-.51,3c-.15.89-.71,3.5,3.07,1.91S63.73,64.57,71.17,56h0c5.13-5.63,7.59-11.35,7.59-17.7"/><g id="FULL_COLOR_ICON" data-name="FULL COLOR ICON"><g id="TYPE_A" data-name="TYPE A"><path class="cls-1" d="M36.11,30.64H33.62a.69.69,0,0,0-.69.69V46.77a.69.69,0,0,0,.69.69h2.49a.69.69,0,0,0,.69-.69V31.33a.69.69,0,0,0-.69-.69"/><path class="cls-1" d="M53.23,30.64H50.74a.69.69,0,0,0-.69.69V40.5L43,30.94a.18.18,0,0,1,0-.07h0s0,0,0,0h0s0,0,0,0h0l0,0,0,0a.05.05,0,0,1,0,0h-.09l0,0H39.91a.69.69,0,0,0-.69.69V46.77a.69.69,0,0,0,.69.69h2.48a.69.69,0,0,0,.7-.69V37.6l7.08,9.57a.58.58,0,0,0,.18.17h0l0,0h0l0,0h.06l0,0h0l.18,0h2.49a.69.69,0,0,0,.69-.69V31.33a.69.69,0,0,0-.69-.69"/><path class="cls-1" d="M30.12,43.6H23.36V31.33a.69.69,0,0,0-.69-.69H20.18a.69.69,0,0,0-.69.69V46.77h0a.67.67,0,0,0,.19.48h0a.69.69,0,0,0,.48.19h9.94a.68.68,0,0,0,.68-.69V44.29a.68.68,0,0,0-.68-.69"/><path class="cls-1" d="M67,34.51a.69.69,0,0,0,.69-.7V31.33a.69.69,0,0,0-.69-.69H57a.71.71,0,0,0-.48.19h0a.7.7,0,0,0-.2.48h0V46.77h0a.68.68,0,0,0,.2.48h0a.67.67,0,0,0,.47.19H67a.69.69,0,0,0,.69-.69V44.29A.69.69,0,0,0,67,43.6H60.2V41H67a.69.69,0,0,0,.69-.69V37.81a.69.69,0,0,0-.69-.69H60.2V34.51Z"/></g></g></svg>