<svg id="圖層_1" data-name="圖層 1" xmlns="http://www.w3.org/2000/svg" viewBox="0 0 557.18 70.01"><defs><style>.cls-1{fill:#fff;}</style></defs><circle class="cls-1" cx="145.12" cy="35" r="35" transform="translate(77.35 168.01) rotate(-76.56)"/><path class="cls-1" d="M15.67,35A35,35,0,0,0,0,5.83V64.17A35,35,0,0,0,15.67,35Z"/><path class="cls-1" d="M54,70A35,35,0,1,0,43.54,1.6V68.4A34.79,34.79,0,0,0,54,70Z"/><path class="cls-1" d="M251.36,29.09h-1.5c-1.86-6.17-6.72-13.85-14-13.85-3.72,0-7.86,2.16-7.86,6.48,0,5.1,6.54,7.08,13.14,9.78s13.08,6,13.08,13.79c0,10.44-7,13.68-16.56,13.68a38.07,38.07,0,0,1-7-.9,39.27,39.27,0,0,0-4.5-1c-.72,0-1.74,1-2.46,1.74h-1.8V43.49h1.32c2.94,7.38,6.48,13.86,14.46,13.86,5,0,10-2.46,10-7,0-5.94-6.48-8-12.9-10.68s-13-5.76-13-13.73,6.66-12.3,13.92-12.3A24.66,24.66,0,0,1,243,14.76a34.68,34.68,0,0,0,3.9,1.14A4.16,4.16,0,0,0,250,14h1.32Z"/><path class="cls-1" d="M272.3,35.57c2.7-2.52,6.3-4.91,10.2-4.91,6.24,0,9.66,3.48,9.66,9.71v14.1c0,1.86.36,2.22,3.24,2.22v1.44H281.6V56.69c3.48,0,3.84-.36,3.84-2.22v-15a5.49,5.49,0,0,0-5.58-5.58c-2.58,0-4.74.85-7.56,3.42V54.47c0,1.86.36,2.22,3.54,2.22v1.44h-14.1V56.69c3.48,0,3.84-.36,3.84-2.22V21.3c.06-3.06-2.7-2.82-3.84-3.18V16.68c3.6-.42,7.08-1.74,10.56-2.76Z"/><path class="cls-1" d="M328.1,49.43C325.7,55.31,321.62,59,315,59c-8.58,0-13.26-5.4-13.26-13.68s5.88-14.63,14.1-14.63c6.48,0,12.18,4.85,12.18,11.57H308.42c-.3,5.76,3.3,11.34,9.54,11.34,4.14,0,6.84-1.8,9.3-5Zm-8.34-9.29c1.14,0,1.5-.19,1.5-1.45a6.32,6.32,0,0,0-6-6.6c-5,0-6.48,4.38-6.72,8Z"/><path class="cls-1" d="M340.94,59a4.62,4.62,0,1,1,4.62-4.62A4.58,4.58,0,0,1,340.94,59Z"/><path class="cls-1" d="M378.74,14.46c12.54,0,24.06,8.58,24.06,21.84,0,13.43-9.84,21.83-22.92,21.83H354.62V56.51c4.8-.06,5.34-.54,5.34-5.7v-29c0-5.16-.54-5.64-5.34-5.7V14.46ZM368.66,50.81c-.12,5.16,1,5.7,7.2,5.7,12.12,0,17.64-8.82,17.64-20.21s-6.72-20.22-17.64-20.22c-7,0-7.2.42-7.2,2.22Z"/><path class="cls-1" d="M436.22,49.43c-2.4,5.88-6.48,9.54-13.14,9.54-8.58,0-13.26-5.4-13.26-13.68s5.88-14.63,14.1-14.63c6.48,0,12.18,4.85,12.18,11.57H416.54c-.3,5.76,3.3,11.34,9.54,11.34,4.14,0,6.84-1.8,9.3-5Zm-8.34-9.29c1.14,0,1.5-.19,1.5-1.45a6.32,6.32,0,0,0-6-6.6c-5,0-6.48,4.38-6.72,8Z"/><path class="cls-1" d="M464.12,40.79l-1.44.12c-1.5-4.14-4.08-8.82-9-8.82a4.12,4.12,0,0,0-4.14,4c0,2,3.42,3.6,8,5.88,3.72,1.86,7.74,3.9,7.74,8.52,0,6.66-5.52,8.52-11.28,8.52a27.92,27.92,0,0,1-9.3-2.1l-.54-9.06,1.44-.24c1.08,5.1,4,10,9.78,10,2.52,0,4-1.92,4-4.32,0-2.88-3.84-4.38-7.68-6.24S444,43,444,38.64c0-5.52,6-8,10.68-8,3.06,0,6.12,1,9.48,2.22Z"/><path class="cls-1" d="M471.5,33.72A68.47,68.47,0,0,0,482,30.66V54.47c0,1.86.36,2.22,3.36,2.22v1.44H471.68V56.69c3.24,0,3.6-.36,3.6-2.22V36.77c0-.72-.66-1.43-3.78-1.61Zm2.88-15.6a4.14,4.14,0,1,1,4.14,4.2A4.24,4.24,0,0,1,474.38,18.12Z"/><path class="cls-1" d="M502.82,70c-3.6,0-12.18-.48-12.18-5.58,0-2.34,3.36-4.38,5.28-5.1v-.06c-2.28-.54-5.28-1.2-5.28-4.08s3.24-5,8.88-7.08c-4.62-2-6.54-4.86-6.54-7.62,0-7,5.52-9.83,11.4-9.83a8.52,8.52,0,0,1,3,.6c0-3.18,2.7-7.56,6.24-7.56,2.1,0,3.3,1,3.3,2.94s-1.2,2.58-3,2.58a6.19,6.19,0,0,1-1.56-.18,10.31,10.31,0,0,0-1.56-.12c-1.5,0-2,1.38-2.1,2.63a8.86,8.86,0,0,1,4.92,2.88,7.81,7.81,0,0,1,2.1,5.28c0,6-4.74,8.4-10.92,9.3-4.08.6-7.5,1.2-7.5,3,0,1.14,1.5,1.5,3.9,1.74l4.32.24c7.44.42,12.66,2,12.66,7.56C518.18,69.11,508.34,70,502.82,70Zm-4.56-10.08a5.22,5.22,0,0,0-3.12,4.26c-.24,2.58,2.82,4.38,8.34,4.38,5.88,0,8.88-1.68,8.88-4.5,0-2-1.32-3.06-3.24-3.24Zm6.12-27.53c-2.94,0-4.56,2.69-4.56,7.37s1.62,7.38,4.56,7.38,4.5-2.7,4.5-7.38S507.26,32.4,504.38,32.4Z"/><path class="cls-1" d="M527.18,37.91c0-1.86-1.74-2.27-3.3-2.63V33.84a76.16,76.16,0,0,0,10-3.18v4.91c2.7-2.52,6.3-4.91,10.2-4.91,6.24,0,9.66,3.48,9.66,9.71v14.1c0,1.86.36,2.22,3.42,2.22v1.44h-13.8V56.69c3.3,0,3.66-.36,3.66-2.22v-15a5.49,5.49,0,0,0-5.58-5.58c-2.58,0-4.74.85-7.56,3.42V54.47c0,1.86.36,2.22,4,2.22v1.44H523.64V56.69c3.18,0,3.54-.36,3.54-2.22Z"/></svg>