<?xml version="1.0" encoding="utf-8"?>
<!-- Generator: Adobe Illustrator 25.0.0, SVG Export Plug-In . SVG Version: 6.00 Build 0)  -->
<svg version="1.1" id="圖層_1" xmlns="http://www.w3.org/2000/svg" xmlns:xlink="http://www.w3.org/1999/xlink" x="0px" y="0px"
	 viewBox="0 0 335.3 70" style="enable-background:new 0 0 335.3 70;" xml:space="preserve">
<style type="text/css">
	.st0{fill:#FFFFFF;}
</style>
<path class="st0" d="M29.5,29.1H28c-1.9-6.2-6.7-13.9-14-13.9c-3.7,0-7.9,2.2-7.9,6.5c0,5.1,6.5,7.1,13.1,9.8s13.1,6,13.1,13.8
	c0,10.4-7,13.7-16.6,13.7c-2.4-0.1-4.7-0.4-7-0.9c-1.5-0.4-3-0.8-4.5-1c-0.7,0-1.7,1-2.5,1.7H0V43.5h1.3c2.9,7.4,6.5,13.9,14.5,13.9
	c5,0,10-2.5,10-7c0-5.9-6.5-8-12.9-10.7s-13-5.8-13-13.7s6.7-12.3,13.9-12.3c2.5,0,4.9,0.4,7.3,1.1c1.3,0.5,2.6,0.8,3.9,1.1
	c1.3-0.1,2.4-0.8,3.1-1.9h1.3L29.5,29.1z"/>
<path class="st0" d="M50.4,35.6c2.7-2.5,6.3-4.9,10.2-4.9c6.2,0,9.7,3.5,9.7,9.7v14.1c0,1.9,0.4,2.2,3.2,2.2v1.4H59.7v-1.4
	c3.5,0,3.8-0.4,3.8-2.2v-15c0.1-3-2.4-5.5-5.4-5.6c-0.1,0-0.1,0-0.2,0c-2.6,0-4.7,0.8-7.6,3.4v17.2c0,1.9,0.4,2.2,3.5,2.2v1.4H39.8
	v-1.4c3.5,0,3.8-0.4,3.8-2.2V21.3c0.1-3.1-2.7-2.8-3.8-3.2v-1.4c3.6-0.4,7.1-1.7,10.6-2.8L50.4,35.6z"/>
<path class="st0" d="M106.2,49.4c-2.4,5.9-6.5,9.6-13.1,9.6c-8.6,0-13.3-5.4-13.3-13.7s5.9-14.6,14.1-14.6c6.5,0,12.2,4.8,12.2,11.6
	H86.5c-0.3,5.8,3.3,11.3,9.5,11.3c4.1,0,6.8-1.8,9.3-5L106.2,49.4z M97.9,40.1c1.1,0,1.5-0.2,1.5-1.5c0.2-3.5-2.5-6.4-6-6.6
	c-5,0-6.5,4.4-6.7,8L97.9,40.1z"/>
<path class="st0" d="M119,59c-2.6,0-4.6-2.1-4.6-4.6s2.1-4.6,4.6-4.6c2.6,0,4.6,2.1,4.6,4.6v0C123.7,56.9,121.6,59,119,59
	C119.1,59,119.1,59,119,59z"/>
<path class="st0" d="M156.8,14.5c12.5,0,24.1,8.6,24.1,21.8c0,13.4-9.8,21.8-22.9,21.8h-25.3v-1.6c4.8-0.1,5.3-0.5,5.3-5.7v-29
	c0-5.2-0.5-5.6-5.3-5.7v-1.6H156.8z M146.8,50.8c-0.1,5.2,1,5.7,7.2,5.7c12.1,0,17.6-8.8,17.6-20.2s-6.7-20.2-17.6-20.2
	c-7,0-7.2,0.4-7.2,2.2L146.8,50.8z"/>
<path class="st0" d="M214.3,49.4c-2.4,5.9-6.5,9.5-13.1,9.5c-8.6,0-13.3-5.4-13.3-13.7s5.9-14.6,14.1-14.6c6.5,0,12.2,4.8,12.2,11.6
	h-19.6c-0.3,5.8,3.3,11.3,9.5,11.3c4.1,0,6.8-1.8,9.3-5L214.3,49.4z M206,40.1c1.1,0,1.5-0.2,1.5-1.5c0.2-3.5-2.5-6.4-6-6.6
	c-5,0-6.5,4.4-6.7,8L206,40.1z"/>
<path class="st0" d="M242.2,40.8l-1.4,0.1c-1.5-4.1-4.1-8.8-9-8.8c-2.2,0-4.1,1.8-4.1,4c0,2,3.4,3.6,8,5.9c3.7,1.9,7.7,3.9,7.7,8.5
	c0,6.7-5.5,8.5-11.3,8.5c-3.2-0.2-6.3-0.9-9.3-2.1l-0.5-9.1l1.4-0.2c1.1,5.1,4,10,9.8,10c2.5,0,4-1.9,4-4.3c0-2.9-3.8-4.4-7.7-6.2
	s-7.7-4.1-7.7-8.4c0-5.5,6-8,10.7-8c3.1,0,6.1,1,9.5,2.2L242.2,40.8z"/>
<path class="st0" d="M249.6,33.7c3.6-0.7,7.1-1.8,10.5-3.1v23.8c0,1.9,0.4,2.2,3.4,2.2v1.4h-13.7v-1.4c3.2,0,3.6-0.4,3.6-2.2V36.8
	c0-0.7-0.7-1.4-3.8-1.6V33.7z M252.5,18.1c0-2.3,1.9-4.1,4.2-4.1c2.3,0,4.1,1.9,4.1,4.2c0,2.3-1.9,4.1-4.1,4.1
	C254.3,22.3,252.5,20.4,252.5,18.1z"/>
<path class="st0" d="M280.9,70c-3.6,0-12.2-0.5-12.2-5.6c0-2.3,3.4-4.4,5.3-5.1v-0.1c-2.3-0.5-5.3-1.2-5.3-4.1s3.2-5,8.9-7.1
	c-4.6-2-6.5-4.9-6.5-7.6c0-7,5.5-9.8,11.4-9.8c1,0,2,0.2,3,0.6c0-3.2,2.7-7.6,6.2-7.6c2.1,0,3.3,1,3.3,2.9s-1.2,2.6-3,2.6
	c-0.5,0-1-0.1-1.6-0.2c-0.5-0.1-1-0.1-1.6-0.1c-1.5,0-2,1.4-2.1,2.6c1.9,0.4,3.6,1.4,4.9,2.9c1.3,1.4,2.1,3.3,2.1,5.3
	c0,6-4.7,8.4-10.9,9.3c-4.1,0.6-7.5,1.2-7.5,3c0,1.1,1.5,1.5,3.9,1.7l4.3,0.2c7.4,0.4,12.7,2,12.7,7.6C296.3,69.1,286.4,70,280.9,70
	z M276.4,59.9c-1.7,0.8-2.9,2.4-3.1,4.3c-0.2,2.6,2.8,4.4,8.3,4.4c5.9,0,8.9-1.7,8.9-4.5c0-2-1.3-3.1-3.2-3.2L276.4,59.9z
	 M282.5,32.4c-2.9,0-4.6,2.7-4.6,7.4s1.6,7.4,4.6,7.4s4.5-2.7,4.5-7.4S285.4,32.4,282.5,32.4L282.5,32.4z"/>
<path class="st0" d="M305.3,37.9c0-1.9-1.7-2.3-3.3-2.6v-1.4c3.4-0.8,6.7-1.9,10-3.2v4.9c2.7-2.5,6.3-4.9,10.2-4.9
	c6.2,0,9.7,3.5,9.7,9.7v14.1c0,1.9,0.4,2.2,3.4,2.2v1.4h-13.8v-1.4c3.3,0,3.7-0.4,3.7-2.2v-15c0.1-3-2.4-5.5-5.4-5.6
	c-0.1,0-0.1,0-0.2,0c-2.6,0-4.7,0.8-7.6,3.4v17.2c0,1.9,0.4,2.2,4,2.2v1.4h-14.2v-1.4c3.2,0,3.5-0.4,3.5-2.2V37.9z"/>
</svg>
